# xmcd
#
# Track frame offsets:
#	150
#	20211
#	46389
#	79603
#	106639
#	125478
#	155504
#	185857
#
# Disc length: 3089 seconds
#
# Revision: 1
# Processed by: cddbd v1.5.2PL0 Copyright (c) Steve Scherf et al.
# Submitted via: audiograbber 1.83.01
#
DISCID=640c0f08
DTITLE=Mitch Ryder - Easter In Berlin - 1980 (Live Side)
DYEAR=2011
DGENRE=Rhythm' n'  Blues
TTITLE0=Long Hard Road
TTITLE1=Ain't Nobody White (Can Sing The Blues)
TTITLE2=War
TTITLE3=Corporate Song
TTITLE4=Liberty
TTITLE5=Nice and Easy
TTITLE6=True Love
TTITLE7=Tough Kid
EXTD=
EXTT0=
EXTT1=
EXTT2=
EXTT3=
EXTT4=
EXTT5=
EXTT6=
EXTT7=
PLAYORDER=
